<svg xmlns="http://www.w3.org/2000/svg" viewBox="0 0 110 134" width="889" height="1024">
  <defs><filter id="ds" x="-25%" y="-20%" width="150%" height="145%"><feDropShadow dx="0" dy="7" stdDev="6" flood-color="#312b22" flood-opacity="0.16"></feDropShadow></filter></defs>
  <g filter="url(#ds)" transform="translate(6,6)">
    <path transform="translate(7,9)" d="M14 4 H62 L90 32 V106 a6 6 0 0 1 -6 6 H14 a6 6 0 0 1 -6 -6 V10 a6 6 0 0 1 6 -6 Z" fill="#2f6f66"></path>
    <path d="M14 4 H62 L90 32 V106 a6 6 0 0 1 -6 6 H14 a6 6 0 0 1 -6 -6 V10 a6 6 0 0 1 6 -6 Z" fill="#214f4b"></path>
    <path d="M62 4 V26 a6 6 0 0 0 6 6 H90 Z" fill="#2c6058"></path>
    <g transform="translate(49,58) scale(0.46) translate(-50,-50)">
      <g transform="translate(66,26) rotate(270) translate(-50,-50)"><path fill="#fbf7f0" d="M50 8 C64 30 78 48 78 64 A28 28 0 1 1 22 64 C22 48 36 30 50 8 Z"></path></g>
      <g transform="translate(34,74) rotate(90) translate(-50,-50)"><path fill="#8fc0b8" d="M50 8 C64 30 78 48 78 64 A28 28 0 1 1 22 64 C22 48 36 30 50 8 Z"></path></g>
    </g>
  </g>
</svg>